<svg width="19" height="19" viewBox="0 0 19 19" fill="none" xmlns="http://www.w3.org/2000/svg">
<path d="M6.61883 0.624927C4.72043 1.2835 3.08326 2.53349 1.94778 4.19129C0.812306 5.84909 0.238377 7.82733 0.310297 9.83542C0.382216 11.8435 1.09619 13.7756 2.34736 15.348C3.59852 16.9203 5.32092 18.0499 7.26156 18.571C8.83488 18.977 10.4833 18.9948 12.065 18.623C13.4979 18.3011 14.8226 17.6127 15.9095 16.625C17.0407 15.5657 17.8618 14.2181 18.2845 12.727C18.7438 11.1056 18.8256 9.40046 18.5235 7.7425H9.68851V11.4074H14.8052C14.7029 11.992 14.4838 12.5498 14.1609 13.0477C13.838 13.5456 13.4179 13.9732 12.9259 14.3049C12.3012 14.7184 11.5969 14.9965 10.8582 15.1213C10.1174 15.2591 9.35758 15.2591 8.6168 15.1213C7.86593 14.9663 7.15564 14.6564 6.53125 14.2114C5.52803 13.5013 4.77475 12.4924 4.37891 11.3288C3.97648 10.1433 3.97648 8.85819 4.37891 7.67274C4.66068 6.84181 5.12649 6.08525 5.74156 5.45954C6.44544 4.73033 7.33657 4.20909 8.31718 3.95301C9.2978 3.69692 10.33 3.71589 11.3005 4.00782C12.0588 4.24045 12.7521 4.64711 13.3252 5.19532C13.9022 4.62136 14.4781 4.04592 15.053 3.46899C15.3499 3.15875 15.6735 2.86336 15.9659 2.54571C15.0909 1.73156 14.0639 1.098 12.9437 0.681333C10.9038 -0.0593853 8.67168 -0.0792914 6.61883 0.624927Z" fill="white"/>
<path d="M6.61882 0.624916C8.67151 -0.079781 10.9036 -0.0603989 12.9437 0.679838C14.0641 1.09934 15.0907 1.73594 15.9644 2.55312C15.6676 2.87078 15.3544 3.16765 15.0516 3.4764C14.4756 4.05135 13.9002 4.62432 13.3252 5.19531C12.7521 4.64709 12.0588 4.24044 11.3005 4.00781C10.3303 3.71485 9.29815 3.69479 8.31727 3.94983C7.3364 4.20487 6.44472 4.72515 5.74007 5.45359C5.125 6.0793 4.65919 6.83586 4.37742 7.66679L1.30031 5.28437C2.40173 3.1002 4.30876 1.42948 6.61882 0.624916Z" fill="#E33629"/>
<path d="M0.483909 7.64452C0.649178 6.8248 0.923767 6.03099 1.30032 5.28436L4.37742 7.67272C3.97499 8.85817 3.97499 10.1433 4.37742 11.3287C3.35222 12.1204 2.32651 12.916 1.30032 13.7156C0.35796 11.8398 0.0705588 9.70261 0.483909 7.64452Z" fill="#F8BD00"/>
<path d="M9.68851 7.74103H18.5235C18.8256 9.39899 18.7438 11.1041 18.2845 12.7256C17.8618 14.2166 17.0407 15.5642 15.9095 16.6235C14.9165 15.8487 13.919 15.0798 12.9259 14.3049C13.4183 13.9728 13.8385 13.5448 14.1614 13.0464C14.4843 12.548 14.7033 11.9895 14.8052 11.4045H9.68851C9.68703 10.1843 9.68851 8.96267 9.68851 7.74103Z" fill="#587DBD"/>
<path d="M1.29883 13.7156C2.32503 12.9239 3.35073 12.1283 4.37594 11.3287C4.77257 12.4928 5.52693 13.5017 6.53125 14.2114C7.15758 14.6543 7.86941 14.9617 8.62125 15.1139C9.36203 15.2517 10.1219 15.2517 10.8627 15.1139C11.6013 14.989 12.3057 14.7109 12.9304 14.2975C13.9234 15.0723 14.9209 15.8412 15.914 16.6161C14.8273 17.6043 13.5025 18.2932 12.0695 18.6155C10.4877 18.9874 8.83934 18.9695 7.26602 18.5636C6.02167 18.2313 4.85936 17.6456 3.85195 16.8432C2.78577 15.9965 1.9149 14.9297 1.29883 13.7156Z" fill="#319F43"/>
</svg>
